<svg width="148" height="543" viewBox="0 0 148 543" fill="none" xmlns="http://www.w3.org/2000/svg">
<g opacity="0.1">
<path fill-rule="evenodd" clip-rule="evenodd" d="M470.389 6.98259H197.762L113.497 266.282L334.072 426.532L554.653 266.282L470.389 6.98259ZM109.162 267.685L195.09 3.30762H473.061L558.988 267.685L334.072 431.083L109.162 267.685Z" fill="white"/>
<path fill-rule="evenodd" clip-rule="evenodd" d="M476.721 -2.10433H191.423L103.239 269.146L334.072 436.798L564.911 269.146L476.721 -2.10433ZM100.236 271.177L99.2397 270.447L188.96 -5.5127H479.197L568.911 270.447L334.072 441.006L100.236 271.177Z" fill="white"/>
<path fill-rule="evenodd" clip-rule="evenodd" d="M483.051 -11.2103H185.099L93.0064 272.016L334.075 447.063L575.151 272.016L483.051 -11.2103ZM89.3171 273.209L182.826 -14.333H485.331L578.833 273.209L334.075 450.928L89.3171 273.209Z" fill="white"/>
<path fill-rule="evenodd" clip-rule="evenodd" d="M585.403 274.89L489.39 -20.3035H178.767L82.748 274.89L334.075 457.335L585.403 274.89ZM80.2328 276.591L79.3945 275.982L176.366 -22.1691L176.69 -23.1528H491.461L588.756 275.982L334.914 460.248L334.075 460.851L80.2328 276.591Z" fill="white"/>
<path fill-rule="evenodd" clip-rule="evenodd" d="M495.724 -29.4032H172.427L72.5019 277.752L334.078 467.594L595.649 277.752L495.724 -29.4032ZM69.4718 278.742L170.559 -31.9731H497.592L598.679 278.742L334.078 470.773L69.4718 278.742Z" fill="white"/>
<path fill-rule="evenodd" clip-rule="evenodd" d="M502.052 -38.5021H166.093L62.2431 280.633L334.075 477.866L605.901 280.633L502.052 -38.5021ZM60.2227 281.997L59.5492 281.515L164.161 -39.9997L164.422 -40.793H503.729L608.341 280.722L608.601 281.515L334.075 480.696L60.2227 281.997Z" fill="white"/>
<path fill-rule="evenodd" clip-rule="evenodd" d="M508.392 -46.4994H159.759L51.9969 284.597L334.072 489.227L616.154 284.597L508.392 -46.4994ZM50.2176 285.797L49.6266 285.365L158.062 -47.8127L158.297 -48.5107H509.854L618.302 284.667L618.524 285.365L334.072 491.721L50.2176 285.797Z" fill="white"/>
<path fill-rule="evenodd" clip-rule="evenodd" d="M626.387 287.47L514.722 -55.5794H153.435L41.7631 287.47L334.075 499.493L626.387 287.47ZM40.2251 288.505L39.7039 288.13L151.973 -56.7214L152.17 -57.3306H515.987L628.25 287.528L628.447 288.13L334.59 501.264L334.075 501.644L40.2251 288.505Z" fill="white"/>
<path fill-rule="evenodd" clip-rule="evenodd" d="M521.057 -64.6854H147.094L31.5039 290.34L334.072 509.764L636.64 290.34L521.057 -64.6854ZM30.2072 291.216L29.7813 290.898L145.867 -65.6369L146.026 -66.1509H522.118L638.21 290.397L638.369 290.898L334.072 511.567L30.2072 291.216Z" fill="white"/>
<path fill-rule="evenodd" clip-rule="evenodd" d="M646.893 293.21L527.391 -73.7846H140.766L21.2573 293.21L334.075 520.017L646.893 293.21ZM20.2147 293.914L19.8587 293.654L139.768 -74.5651L139.901 -74.9712H528.256L648.158 293.248L648.292 293.654L334.431 521.229L334.075 521.489L20.2147 293.914Z" fill="white"/>
<path fill-rule="evenodd" clip-rule="evenodd" d="M657.134 296.754L533.72 -82.8884H134.43L11.0105 296.754L334.069 531.383L657.134 296.754ZM10.2094 297.295L9.93604 297.104L133.769 -83.791H534.381L658.214 297.104L334.336 532.318L334.069 532.515L10.2094 297.295Z" fill="white"/>
<path fill-rule="evenodd" clip-rule="evenodd" d="M127.633 -92.6113L127.563 -92.3889L0.0134277 299.863L0.204189 300.002L334.075 542.437L334.26 542.297L668.137 299.863L668.074 299.646L540.524 -92.6113H127.633ZM0.757398 299.621L128.104 -91.9818H540.053L667.393 299.621L334.075 541.643L0.757398 299.621Z" fill="white"/>
</g>
</svg>
